<svg width="216" height="96" viewBox="0 0 216 96" fill="none" xmlns="http://www.w3.org/2000/svg">
<path d="M72.3735 26.0004L79.0028 80H143.895L137.262 26.0004H72.3735Z" fill="#AA8FFF"/>
<path d="M211.943 45.4415C210.446 33.3035 200.911 25.9478 187.953 26.0003H144.778L151.41 79.9999H170.825L169.498 69.204H190.048C206.23 69.1982 213.638 59.1202 211.943 45.4415ZM187.959 54.0607L167.651 54.0811L166.058 41.1203L186.482 41.1378C191.282 41.1961 193.739 43.898 194.136 47.5978C194.381 49.9816 193.292 54.0607 187.962 54.0607H187.959Z" fill="#1A0826"/>
<path d="M92.2064 19.0612C95.6468 15.4014 95.0787 9.27881 90.9376 5.38595C86.7964 1.4931 80.6504 1.30417 77.2101 4.9639C73.7698 8.62364 74.3379 14.7462 78.479 18.639C82.6201 22.5319 88.7661 22.7209 92.2064 19.0612Z" fill="#1A0826"/>
<path d="M4.77643 64.9121L6.62923 80H71.4714L69.3501 62.7208H39.1159L38.8533 60.5762L66.6979 41.1204L64.8392 26.0004H0L2.12124 43.2796H32.405L32.6705 45.4387L4.77643 64.9121Z" fill="#1A0826"/>

</svg>